PathFileType	4	(X/Y/Z)	 s05c0402.trc
DataRate	CameraRate	NumFrames	NumMarkers	Units	OrigDataRate	OrigDataStartFrame	OrigNumFrames
200	200	4	50	mm	200	1	2000
Frame#	Time	racr			lacr			c7			jug			rlel			rdr			llel			ldr			s2			lic			ric			lasi			rasi			rpsi			lpsi			rgt			lgt			rth1			rth2			rth3			rth4			rlfc			rmfc			rsh1			rsh2			rsh3			rsh4			rlmal			rmmal			rcal			rtoe			rmt5			lth1			lth2			lth4			lth3			llfc			lmfc			lsh1			lsh2			lsh3			lsh4			llmal			lmmal			lcal			ltoe			lmt5			SBIKE			LBIKE			RBIKE			
		X1	Y1	Z1	X2	Y2	Z2	X3	Y3	Z3	X4	Y4	Z4	X5	Y5	Z5	X6	Y6	Z6	X7	Y7	Z7	X8	Y8	Z8	X9	Y9	Z9	X10	Y10	Z10	X11	Y11	Z11	X12	Y12	Z12	X13	Y13	Z13	X14	Y14	Z14	X15	Y15	Z15	X16	Y16	Z16	X17	Y17	Z17	X18	Y18	Z18	X19	Y19	Z19	X20	Y20	Z20	X21	Y21	Z21	X22	Y22	Z22	X23	Y23	Z23	X24	Y24	Z24	X25	Y25	Z25	X26	Y26	Z26	X27	Y27	Z27	X28	Y28	Z28	X29	Y29	Z29	X30	Y30	Z30	X31	Y31	Z31	X32	Y32	Z32	X33	Y33	Z33	X34	Y34	Z34	X35	Y35	Z35	X36	Y36	Z36	X37	Y37	Z37	X38	Y38	Z38	X39	Y39	Z39	X40	Y40	Z40	X41	Y41	Z41	X42	Y42	Z42	X43	Y43	Z43	X44	Y44	Z44	X45	Y45	Z45	X46	Y46	Z46	X47	Y47	Z47	X48	Y48	Z48	X49	Y49	Z49	X50	Y50	Z50	
1	0.0050	396.247269	1398.203348	-136.029738	396.415185	1406.502070	-429.583821	384.647034	1481.726527	-282.596461	363.050276	1323.271330	-282.457046	493.602908	1156.907424	-32.965314	681.881751	966.920205	-60.046383	472.528971	1149.615497	-528.704554	684.826551	973.072285	-480.209855	-106.662670	1152.220831	-269.262560	33.735930	1175.112398	-411.065651	35.684369	1198.084428	-130.488721	90.442479	1129.896588	-376.364072	83.113041	1137.851986	-157.003180	-80.270348	1200.023570	-228.889740	-77.547036	1201.557609	-315.714031	5.637023	1065.854125	-94.319664	-23.090779	1063.585782	-435.338527	105.596870	1014.629693	-75.737201	193.315821	1001.547318	-66.862507	261.209296	945.338141	-63.435896	208.191500	1033.581945	-78.633983	402.498310	869.843256	-81.137124	396.367765	867.603597	-191.835138	337.953387	777.296426	-66.158483	327.171639	690.942841	-80.708828	275.534748	621.541040	-90.389030	355.311594	682.769946	-105.445781	229.560215	497.258398	-109.163631	244.437666	531.427040	-184.926378	158.803512	466.613165	-158.213208	451.801305	439.200498	-145.379180	348.965167	416.989161	-82.668441	56.737259	946.746600	-457.057317	125.414677	896.090482	-459.927086	155.196469	915.575714	-447.451371	159.044101	811.439970	-464.485266	228.221809	676.980784	-439.973772	221.246775	666.905592	-330.013438	134.158371	588.345344	-458.465905	98.833344	508.939278	-445.020042	26.254807	458.125175	-440.634956	124.752551	491.836690	-422.392055	-44.408554	356.180059	-428.507502	-10.512980	377.535186	-353.480567	-115.605574	330.288776	-384.805227	164.175064	241.561963	-396.743344	52.573290	242.821455	-458.207721	-259.687680	897.434398	-280.073269	-43.631841	85.020384	-474.911650	-51.657433	79.740089	-77.397886	
2	0.0100	396.276315	1398.184370	-136.094512	396.423904	1406.494219	-429.615419	384.703873	1481.664632	-282.667721	363.046840	1323.212089	-282.502647	493.584899	1156.901972	-32.998462	681.862375	966.907012	-60.153900	472.524068	1149.612686	-528.732023	684.837943	973.061528	-480.253705	-106.646820	1152.216304	-269.278846	33.717342	1175.100510	-411.125054	35.706528	1198.074739	-130.499787	90.436483	1129.877825	-376.432645	83.143739	1137.857827	-157.051510	-80.241301	1200.031905	-228.923206	-77.521994	1201.559593	-315.754075	5.660509	1065.853340	-94.353812	-23.104728	1063.577196	-435.355490	105.646549	1014.645544	-75.777382	193.382263	1001.575197	-66.935357	261.270564	945.358817	-63.513421	208.251637	1033.615543	-78.712503	402.541710	869.905542	-81.243144	396.386949	867.635614	-191.949165	337.958898	777.341279	-66.279270	327.197307	690.978294	-80.797757	275.564614	621.611932	-90.468054	355.323739	682.810303	-105.510947	229.559920	497.316739	-109.181125	244.443899	531.453291	-184.942817	158.795176	466.662102	-158.226177	451.786966	439.227941	-145.384470	348.931787	417.023543	-82.672337	56.721475	946.726397	-457.091251	125.387911	896.056497	-459.952056	155.175368	915.549063	-447.487489	158.995520	811.357929	-464.484563	228.197667	676.939885	-439.996109	221.219227	666.889948	-330.024534	134.139735	588.307293	-458.477998	98.810288	508.904192	-445.034130	26.247000	458.072488	-440.623545	124.741098	491.805647	-422.403323	-44.404008	356.127860	-428.487293	-10.507793	377.502932	-353.497311	-115.601640	330.234737	-384.797060	164.189164	241.537215	-396.744576	52.601240	242.746318	-458.192937	-259.723036	897.374654	-280.270704	-43.642250	85.086499	-474.968069	-51.646428	79.731598	-77.398115	
3	0.0150	396.269448	1398.179876	-136.141069	396.430512	1406.477048	-429.633297	384.758989	1481.634173	-282.701547	363.031475	1323.196743	-282.558375	493.570915	1156.880489	-33.053472	681.835908	966.895775	-60.244522	472.539037	1149.603939	-528.761395	684.841729	973.064400	-480.282753	-106.641928	1152.229582	-269.287593	33.696762	1175.084759	-411.163036	35.731645	1198.078527	-130.525293	90.430421	1129.873439	-376.473441	83.167720	1137.862748	-157.095779	-80.216555	1200.038879	-228.944066	-77.509395	1201.567198	-315.764662	5.690582	1065.855244	-94.368807	-23.114162	1063.562388	-435.377130	105.699865	1014.675231	-75.812448	193.421299	1001.595884	-67.005338	261.343774	945.381219	-63.610104	208.306923	1033.647600	-78.790934	402.601870	869.929455	-81.366462	396.411682	867.630646	-192.037442	337.968436	777.394281	-66.373576	327.197426	691.050490	-80.869555	275.556851	621.685808	-90.531531	355.331593	682.844131	-105.576725	229.561407	497.358100	-109.198134	244.471468	531.495818	-184.978278	158.782207	466.728507	-158.223239	451.779799	439.250577	-145.388372	348.932331	417.067368	-82.674010	56.711516	946.707154	-457.107362	125.374118	896.029819	-459.972616	155.162911	915.524990	-447.530567	158.967294	811.343015	-464.524692	228.173211	676.914476	-439.999009	221.190362	666.880819	-330.029401	134.108537	588.284392	-458.475848	98.797410	508.875093	-445.041101	26.237521	458.050524	-440.637191	124.723975	491.782270	-422.398275	-44.414922	356.089117	-428.503061	-10.519787	377.461789	-353.493837	-115.595799	330.181815	-384.781477	164.200137	241.526102	-396.743940	52.611208	242.712974	-458.206457	-259.596247	897.387918	-280.511783	-43.655847	85.053418	-474.977116	-51.655740	79.739151	-77.387637	
4	0.0200	396.290832	1398.163296	-136.175369	396.435075	1406.447153	-429.656455	384.808429	1481.566604	-282.732090	363.004636	1323.194165	-282.593785	493.557234	1156.867899	-33.123256	681.810473	966.834312	-60.363409	472.526125	1149.594943	-528.802376	684.864362	972.989931	-480.351583	-106.622914	1152.232291	-269.299090	33.700798	1175.076897	-411.205552	35.773854	1198.054661	-130.552905	90.426013	1129.864955	-376.528196	83.191820	1137.864756	-157.125805	-79.965921	1201.004811	-228.850388	-77.397588	1201.865664	-315.789504	5.755591	1065.761725	-94.366212	-23.130181	1063.561619	-435.390171	106.006481	1014.585337	-75.783800	193.476732	1001.643654	-67.073302	261.345366	945.366693	-63.724081	208.344158	1033.677169	-78.858877	402.656803	869.992565	-81.472225	396.422021	867.646146	-192.156452	338.002409	777.454483	-66.496636	326.136749	690.130404	-81.582027	275.666598	621.633024	-90.584176	355.340556	682.888398	-105.635024	229.273713	497.880398	-108.931613	244.555708	531.472557	-185.001876	158.772521	466.755542	-158.221763	451.784207	439.262513	-145.391407	348.981288	417.072382	-82.692050	56.690708	946.686621	-457.127834	125.497666	895.482770	-459.753577	154.961067	915.418462	-447.350794	159.268279	811.439672	-464.100731	228.359420	676.761970	-439.442272	221.184597	666.878096	-330.046705	134.109841	588.267948	-458.490963	98.792663	508.867289	-445.063300	26.214664	458.031428	-440.648033	124.469211	492.036527	-422.111330	-44.457636	356.151303	-428.558776	-10.514497	377.429530	-353.510255	-115.598034	330.159150	-384.790806	164.205189	241.492527	-396.733367	52.618004	242.688621	-458.214742	-259.663670	897.434471	-280.092030	-43.664354	85.059355	-474.967379	-51.649722	79.739585	-77.381322	
